<?xml version="1.0" standalone="no"?>
<!DOCTYPE svg PUBLIC "-//W3C//DTD SVG 20010904//EN"
 "http://www.w3.org/TR/2001/REC-SVG-20010904/DTD/svg10.dtd">
<svg version="1.0" xmlns="http://www.w3.org/2000/svg"
 width="395.000000pt" height="395.000000pt" viewBox="0 0 395.000000 395.000000"
 preserveAspectRatio="xMidYMid meet">
<metadata>
Created by potrace 1.14, written by Peter Selinger 2001-2017
</metadata>
<g transform="translate(0.000000,395.000000) scale(0.100000,-0.100000)"
fill="#000000" stroke="none">
<path d="M511 3934 c-155 -41 -295 -155 -363 -294 -20 -41 -40 -91 -44 -110
-5 -19 -10 -710 -11 -1535 -3 -1656 -7 -1548 60 -1685 63 -128 231 -261 364
-287 46 -10 1583 -11 1633 -2 200 36 387 222 429 427 7 33 11 199 11 442 l0
390 385 0 c238 0 404 4 437 11 168 35 331 167 398 324 20 47 22 53 37 135 10
52 9 1699 -1 1748 -43 211 -199 377 -406 433 -61 17 -161 18 -1470 18 -1198 0
-1413 -3 -1459 -15z"/>
</g>
</svg>
